<svg aria-hidden="true" style="position: absolute; width: 0; height: 0; overflow: hidden;" version="1.1" xmlns="http://www.w3.org/2000/svg" xmlns:xlink="http://www.w3.org/1999/xlink">
    <defs>
        <symbol id="icon-Air-Jordan-1" viewBox="0 0 37 32">
            <path d="M5.266 0l32.038 6.734-5.266 25.053-32.038-6.734 5.266-25.053z"></path>
        </symbol>
        <symbol id="icon-Air-Jordan-2" viewBox="0 0 38 32">
            <path d="M6.614-2.987l31.466 6.614-6.614 31.466-31.466-6.614 6.614-31.466z"></path>
        </symbol>
        <symbol id="icon-Air-Jordan-3" viewBox="0 0 37 32">
            <path d="M6.409-2.987l30.492 6.409-6.409 30.492-30.492-6.409 6.409-30.492z"></path>
        </symbol>
        <symbol id="icon-arrow" viewBox="0 0 19 32">
            <path fill="#fff" style="fill: var(--color1, #fff)" d="M1.331 1.575c-0.425 0.425-0.664 1.002-0.664 1.603s0.239 1.177 0.664 1.603l11.22 11.22-11.22 11.22c-0.413 0.428-0.641 1-0.636 1.594s0.244 1.163 0.664 1.583 0.989 0.659 1.583 0.664c0.594 0.005 1.167-0.223 1.594-0.636l12.823-12.823c0.425-0.425 0.664-1.002 0.664-1.603s-0.239-1.177-0.664-1.603l-12.823-12.823c-0.425-0.425-1.002-0.664-1.603-0.664s-1.177 0.239-1.603 0.664z"></path>
        </symbol>
        <symbol id="icon-faceb" viewBox="0 0 19 32">
            <path d="M11.959 31.195v-13.842h4.67l0.694-5.42h-5.364v-3.452c0-1.564 0.436-2.635 2.68-2.635h2.844v-4.832c-1.384-0.148-2.775-0.22-4.166-0.215-4.128 0-6.962 2.52-6.962 7.146v3.977h-4.639v5.42h4.649v13.852h5.594z"></path>
        </symbol>
        <symbol id="icon-inst" viewBox="0 0 32 32">
            <path d="M9.953 1.421c1.564-0.072 2.063-0.088 6.047-0.088s4.483 0.017 6.045 0.088c1.563 0.071 2.629 0.32 3.563 0.681 0.977 0.369 1.864 0.947 2.598 1.693 0.747 0.732 1.323 1.617 1.691 2.596 0.363 0.933 0.611 2 0.683 3.56 0.072 1.567 0.088 2.065 0.088 6.048 0 3.984-0.017 4.483-0.088 6.047-0.071 1.56-0.32 2.627-0.683 3.56-0.368 0.979-0.945 1.866-1.691 2.599-0.733 0.747-1.62 1.323-2.598 1.691-0.933 0.363-2 0.611-3.56 0.683-1.565 0.072-2.064 0.088-6.048 0.088s-4.483-0.017-6.047-0.088c-1.56-0.071-2.627-0.32-3.56-0.683-0.979-0.368-1.866-0.945-2.599-1.691-0.746-0.732-1.324-1.619-1.692-2.597-0.361-0.933-0.609-2-0.681-3.56-0.072-1.567-0.088-2.065-0.088-6.048 0-3.984 0.017-4.483 0.088-6.045s0.32-2.629 0.681-3.563c0.369-0.979 0.947-1.865 1.693-2.597 0.732-0.746 1.618-1.323 2.596-1.692 0.933-0.361 2-0.609 3.56-0.681h0.001zM21.927 4.061c-1.547-0.071-2.011-0.085-5.927-0.085s-4.38 0.015-5.927 0.085c-1.431 0.065-2.207 0.304-2.724 0.505-0.684 0.267-1.173 0.583-1.687 1.096-0.487 0.473-0.861 1.050-1.096 1.687-0.201 0.517-0.44 1.293-0.505 2.724-0.071 1.547-0.085 2.011-0.085 5.927s0.015 4.38 0.085 5.927c0.065 1.431 0.304 2.207 0.505 2.724 0.235 0.636 0.609 1.213 1.096 1.687 0.473 0.487 1.051 0.861 1.687 1.096 0.517 0.201 1.293 0.44 2.724 0.505 1.547 0.071 2.009 0.085 5.927 0.085s4.38-0.015 5.927-0.085c1.431-0.065 2.207-0.304 2.724-0.505 0.684-0.267 1.173-0.583 1.687-1.096 0.487-0.473 0.861-1.051 1.096-1.687 0.201-0.517 0.44-1.293 0.505-2.724 0.071-1.547 0.085-2.011 0.085-5.927s-0.015-4.38-0.085-5.927c-0.065-1.431-0.304-2.207-0.505-2.724-0.267-0.684-0.583-1.173-1.096-1.687-0.473-0.487-1.050-0.861-1.687-1.096-0.517-0.201-1.293-0.44-2.724-0.505zM14.127 20.521c1.046 0.436 2.211 0.494 3.296 0.166s2.022-1.022 2.652-1.965c0.63-0.942 0.913-2.074 0.801-3.202s-0.612-2.181-1.415-2.981c-0.512-0.511-1.13-0.903-1.812-1.146s-1.408-0.333-2.128-0.262c-0.72 0.071-1.415 0.301-2.036 0.673s-1.151 0.877-1.553 1.478c-0.402 0.601-0.665 1.285-0.772 2s-0.052 1.446 0.157 2.138c0.21 0.692 0.571 1.329 1.056 1.866s1.084 0.958 1.752 1.235zM10.669 10.669c0.7-0.7 1.531-1.255 2.446-1.634s1.895-0.574 2.885-0.574c0.99 0 1.97 0.195 2.885 0.574s1.746 0.934 2.446 1.634c0.7 0.7 1.255 1.531 1.634 2.446s0.574 1.895 0.574 2.885-0.195 1.97-0.574 2.885c-0.379 0.915-0.934 1.746-1.634 2.446-1.414 1.414-3.331 2.208-5.331 2.208s-3.917-0.794-5.331-2.208c-1.414-1.414-2.208-3.331-2.208-5.331s0.794-3.917 2.208-5.331zM25.211 9.584c0.174-0.164 0.312-0.36 0.408-0.579s0.147-0.454 0.151-0.692c0.003-0.238-0.041-0.475-0.131-0.696s-0.223-0.422-0.391-0.59-0.369-0.302-0.59-0.391c-0.221-0.090-0.458-0.134-0.696-0.131s-0.474 0.055-0.692 0.151-0.415 0.235-0.579 0.408c-0.318 0.337-0.492 0.785-0.486 1.249s0.194 0.907 0.522 1.235c0.328 0.328 0.771 0.515 1.235 0.522s0.912-0.167 1.249-0.486z"></path>
        </symbol>
        <symbol id="icon-jordan-1" viewBox="0 0 35 32" >
            <path fill="#fff" style="fill: var(--color1, #fff)" d="M18.756 2.181c-0.013-0.071-0.022-0.143-0.027-0.215-0.071-1.012 0.696-1.89 1.715-1.962 1.020-0.071 1.903 0.693 1.974 1.705s-0.696 1.89-1.715 1.962c-0.064 0.005-0.128 0.006-0.191 0.003-0.041 0.011-0.066 0.016-0.102 0.047-0.105 0.162 0.267 0.132 0.014 0.842 0 0-0.002 0.078-0.030 0.156-0.020 0.272-0.125 1.080-0.14 1.51 0.054 0.062 0.069 0.093 0.063 0.244-0.024 0.204-0.071 0.705-0.147 1.026-0.064 0.275-0.177 0.327-0.268 0.395-0.128 0.569-0.162 1.041-0.49 1.733-0.030 0.524-0.067 0.667-0.177 0.923-0.012 0.772 0.041 0.887-0.483 2.109-0.135 0.572-0.007 0.967 0.136 1.561 0.146 0.61 0.552 0.866 0.612 1.491 0.142 1.472 0.107 2.475-0.211 3.629l0.277 0.653c0.344 0.157 1.199 0.586 0.725 1.265 0.667 0.348 1.675 0.718 2.507 1.425 0.334 0.277 0.688 0.578 1.005 0.933 0.604 0.093 0.539 0.141 0.986 0.414 1.316 0.801 3.425 2.391 4.648 3.517 0.211 0.122 0.297 0.21 0.466 0.299 0.027 0.051 0.034 0.062 0.028 0.076-0.058 0.147-0.056 0.151-0.109 0.268 0.066 0.072 0.189 0.14 0.262 0.204 0.069 0.021 0.069-0.011 0.187-0.040 0.154 0.143 0.344 0.258 0.412 0.251 0.208-0.052 0.173-0.010 0.349-0.205 0.063-0.065 0.169 0.001 0.169 0.001 0.066-0.077 0.208-0.231 0.397-0.341 0.151-0.088 0.439-0.098 0.439-0.098 0.097 0.001 0.078 0.099 0.070 0.131-0.109 0.056-0.34 0.117-0.47 0.212-0.282 0.29-0.504 0.682-0.504 0.682 0.569-0.077 0.918 0.063 1.392 0.009 0.258-0.015 0.449 0.002 0.721-0.194 0 0 0.261-0.184 0.495-0.282 0.227-0.098 0.442-0.046 0.642 0.098 0.141 0.158 0.226 0.159 0.012 0.383-0.078 0.087-0.19 0.184-0.333 0.324-0.251 0.247-0.589 0.575-0.939 0.847-0.354 0.275-0.756 0.522-1.007 0.635-0.633 0.452-0.484 0.334-0.982 0.782-0.063 0.056-0.23 0.156-0.31 0.209-0.196 0.128-0.258 0.021-0.386-0.213 0 0-0.058-0.088-0.155-0.275-0.106-0.204-0.185-0.438-0.153-0.434-0.118-0.015-0.649-0.634-0.65-0.766-0.112-0.026-0.591-0.486-0.609-0.574l-0.424-0.338c-0.485 0.1-0.597-0.199-1.879-1.103-0.146-0.003-0.372-0.081-0.696-0.32-0.579-0.46-1.967-1.502-2.202-1.621-0.253-0.128-0.555-0.248-0.74-0.4-0.277-0.051-0.429-0.080-0.568-0.118-0.142-0.039-0.271-0.088-0.63-0.136-0.584-0.072-1.191-0.313-1.768-0.6-0.273-0.129-0.511-0.194-0.746-0.295-0.528-0.221-0.98-0.421-1.331-0.501-0.134-0.013-0.77-0.203-1.103-0.396-0.116-0.059-0.183-0.116-0.259-0.133-0.175-0.040-0.287 0.029-0.366 0.055-0.428 0.221-0.828 0.413-1.198 0.61-0.344 0.183-0.661 0.373-0.998 0.565-0.303 0.174-0.653 0.338-1.013 0.509 0 0-1.026 0.511-1.587 0.71-0.486 0.395-1.481 1.077-2.087 1.415-0.3 0.142-0.884 0.509-1.154 0.592-0.154 0.123-0.701 0.511-1.13 0.831-0.331 0.246-0.581 0.454-0.581 0.454-0.192 0.171-0.179 0.253-0.545 0.098-0.102 0.083-0.18 0.134-0.245 0.182-0.264 0.19-0.287 0.144-0.383 0.139-0.184 0.158-0.207 0.076-0.368 0.259-0.106 0.163 0.002 0.124-0.221 0.203-0.047 0.018-0.069 0.075-0.106 0.106-0.179 0.147-0.18 0.561-0.609 0.591-0.249 0.176-0.185 0.389-0.375 0.38 0.012 0.183-0.336 0.45-0.399 0.449-0.547 0.188-0.585-0.212-1.243 0.086-0.085 0.039-0.21 0.145-0.374 0.176-0.289 0.054-0.638-0.003-0.851-0.166-0.335-0.257-0.644-0.752-0.644-0.752-0.107-0.25-0.045-0.409 0.288-0.645 0.139-0.088 0.164-0.153 0.397-0.169 0.116-0.043 0.084 0.023 0.291-0.051 0.12-0.043 0.12-0.012 0.361-0.033 0.055-0.037 0.133-0.050 0.237-0.084 0.191-0.062 0.377-0.132 0.377-0.132s0.049-0.048 0.232-0.031c0.155-0.063 0.315-0.157 0.396-0.186-0.021-0.244 0.006-0.233 0.12-0.331 0.142-0.122 0.168-0.102 0.273-0.026 0.045-0.026 0.066-0.034 0.061-0.071-0.017-0.127-0.127-0.187-0.094-0.468-0.049-0.112-0.121-0.251-0.105-0.335 0.023-0.090 0.045-0.134 0.101-0.163 0.059-0.031 0.078 0.011 0.109 0.046 0.056 0.065 0.102 0.257 0.102 0.257 0.020 0.217 0.087 0.497 0.303 0.339 0.127-0.128 0.152-0.469 0.411-0.396l0.185 0.16c0.157-0.147 0.164-0.147 0.258-0.206 0 0-0.147-0.148-0.018-0.263 0.088-0.078 0.195-0.134 0.384-0.342 0.519-0.57 0.786-0.822 1.348-1.282 1.12-0.916 2.395-1.558 3.205-1.877 0.264-0.333 0.521-0.555 1.107-0.61 0.697-1.169 2.031-2.213 2.338-2.38 0.249-0.449 0.357-0.401 0.684-0.491 0.258-0.206 0.317-0.206 0.433-0.421 0.112-0.444-0.259-1.629 0.689-1.689 0.201-0.283 0.151-0.215 0.376-0.482-0.152-0.373-0.215-0.684-0.256-0.953-0.007-0.031-0.376-0.29-0.272-0.627-0.157-0.185-0.45-0.618-0.542-0.821-0.042 0.001-0.077-0.015-0.123-0.021-0.048-0.008-0.107-0.005-0.174-0.011-0.148 0.379-0.309 0.407-0.571 0.491-0.469 0.993-0.634 1.413-1.961 2.235-0.527 0.586-0.695 1.239-0.693 1.229-0.091 0.194-0.059 0.464-0.011 0.61-0.069 0.215-0.051 0.236-0.051 0.236 0.029 0.081 0.104 0.189 0.197 0.212 0.159 0.042 0.319 0.035 0.31 0.211-0.021 0.221-0.313 0.185-0.451 0.16-0.531-0.084-0.363-0.428-0.703-0.313-0.26 0.169-0.357 0.668-0.782 0.603-0.056-0.037-0.039-0.146-0.001-0.225 0.060-0.123 0.165-0.225 0.102-0.271-0.277 0.088-0.553 0.177-0.829 0.268-0.26 0.070-0.545-0.058-0.289-0.228 0.119-0.046 0.289-0.103 0.499-0.237 0 0 0.108-0.146-0.099-0.073-0.226 0.080-0.56 0.13-0.799 0.104 0 0-0.496-0.065-0.56-0.104s-0.123-0.191 0.032-0.19c0.197 0.002 0.689-0.056 1.070-0.157 0.184-0.071 0.534-0.277 0.731-0.374 0 0 0.213-0.308 0.33-0.369 0.196-0.224 0.361-0.356 0.534-0.585 0.169-0.347 0.344-0.897 0.905-1.747 0.259-0.392 0.581-0.849 0.987-1.258 0 0 0.105-0.654 0.633-1.119 0.116-0.272 0.293-0.593 0.467-0.89 0.068-0.114 0.132-0.213 0.197-0.322 0.164-0.255 0.335-0.73 0.973-0.805 0 0 0.272-0.2 0.377-0.342 0.164-0.139 0.126-0.354 0.259-0.506-0.203-0.197-0.722-0.567-0.773-1.081-0.054-0.546 0.142-0.994 0.474-1.327 0.368-0.366 0.756-0.549 1.228-0.521 0.589 0.087 0.7 0.281 0.888 0.473 0.18 0.182 0.247 0.065 0.323 0.278 0.494 0.13 0.466 0.073 0.462 0.434 0.076 0.102 0.203 0.196 0.201 0.407 0.166-0.342 0.199-0.405 0.642-0.782 0.105-0.306 0.176-0.607 0.268-0.913 0.087-0.283 0.194-0.574 0.277-0.793-0.088-0.619 0.093-0.721 0.335-1.263-0.043-0.075-0.034-0.096-0.016-0.218 0.094-0.358 0.241-0.833 0.329-1.142 0 0 0.029-0.123 0.157-0.132 0.111-0.391 0.277-1.12 0.305-1.268 0.114-0.409 0.040-0.541-0.047-0.771-0.028-0.075-0.015-0.183-0.063-0.267-0.138-0.239-0.286-0.549-0.387-0.77-0.065-0.141-0.169-0.673-0.169-0.673-0.089-0.271-0.012 0-0.012 0z"></path>
        </symbol>
        <symbol id="icon-plus" viewBox="0 0 30 32">
            <path d="M29.523 13.119v5.098h-29.238v-5.098h29.238zM17.629 0.668v31.055h-5.42v-31.055h5.42z"></path>
        </symbol>
        <symbol id="icon-search" viewBox="0 0 32 32">
            <path fill="#fff" style="fill: var(--color1, #fff)" d="M12.672 0c-2.017-0-4.004 0.481-5.797 1.403s-3.34 2.26-4.513 3.9c-1.173 1.641-1.936 3.538-2.228 5.533s-0.103 4.032 0.55 5.939c0.653 1.908 1.753 3.632 3.207 5.030s3.22 2.428 5.152 3.005c1.932 0.578 3.974 0.686 5.957 0.315s3.848-1.209 5.441-2.445l8.534 8.531c0.146 0.151 0.321 0.272 0.514 0.355s0.401 0.127 0.611 0.128 0.419-0.038 0.613-0.118c0.195-0.080 0.371-0.197 0.52-0.346s0.266-0.326 0.346-0.52c0.080-0.195 0.12-0.403 0.118-0.613s-0.046-0.418-0.128-0.611c-0.083-0.193-0.204-0.368-0.355-0.514l-8.531-8.531c1.454-1.873 2.354-4.116 2.596-6.475s-0.182-4.738-1.225-6.868c-1.043-2.13-2.662-3.924-4.674-5.179s-4.336-1.92-6.707-1.92zM3.169 12.671c0-2.52 1.001-4.938 2.783-6.72s4.199-2.783 6.72-2.783c2.52 0 4.938 1.001 6.72 2.783s2.783 4.199 2.783 6.72c0 2.52-1.001 4.938-2.783 6.72s-4.199 2.783-6.72 2.783c-2.52 0-4.938-1.001-6.72-2.783s-2.783-4.199-2.783-6.72z"></path>
        </symbol>
        <symbol id="icon-shop" viewBox="0 0 32 32">
            <path fill="#fff" style="fill: var(--color1, #fff)" d="M0 1.067c0-0.283 0.112-0.554 0.312-0.754s0.471-0.312 0.754-0.312h3.2c0.238 0 0.469 0.080 0.657 0.226s0.321 0.352 0.378 0.582l0.864 3.458h24.768c0.157 0 0.311 0.035 0.453 0.101s0.267 0.164 0.367 0.284 0.172 0.262 0.211 0.413c0.039 0.152 0.045 0.31 0.016 0.464l-3.2 17.067c-0.046 0.244-0.176 0.465-0.367 0.624s-0.432 0.246-0.681 0.246h-19.2c-0.249-0-0.489-0.087-0.681-0.246s-0.321-0.38-0.367-0.624l-3.198-17.035-0.853-3.428h-2.368c-0.283 0-0.554-0.112-0.754-0.312s-0.312-0.471-0.312-0.754zM10.667 23.467c-1.132 0-2.217 0.45-3.017 1.25s-1.25 1.885-1.25 3.017c0 1.132 0.45 2.217 1.25 3.017s1.885 1.25 3.017 1.25c1.132 0 2.217-0.45 3.017-1.25s1.25-1.885 1.25-3.017c0-1.132-0.45-2.217-1.25-3.017s-1.885-1.25-3.017-1.25zM25.6 23.467c-1.132 0-2.217 0.45-3.017 1.25s-1.25 1.885-1.25 3.017c0 1.132 0.45 2.217 1.25 3.017s1.885 1.25 3.017 1.25c1.132 0 2.217-0.45 3.017-1.25s1.25-1.885 1.25-3.017c0-1.132-0.45-2.217-1.25-3.017s-1.885-1.25-3.017-1.25zM10.667 25.6c0.566 0 1.108 0.225 1.508 0.625s0.625 0.943 0.625 1.508c0 0.566-0.225 1.108-0.625 1.508s-0.943 0.625-1.508 0.625c-0.566 0-1.108-0.225-1.508-0.625s-0.625-0.943-0.625-1.508c0-0.566 0.225-1.108 0.625-1.508s0.943-0.625 1.508-0.625zM25.6 25.6c0.566 0 1.108 0.225 1.508 0.625s0.625 0.943 0.625 1.508c0 0.566-0.225 1.108-0.625 1.508s-0.943 0.625-1.508 0.625c-0.566 0-1.108-0.225-1.508-0.625s-0.625-0.943-0.625-1.508c0-0.566 0.225-1.108 0.625-1.508s0.943-0.625 1.508-0.625z"></path>
        </symbol>
        <symbol id="icon-twitt" viewBox="0 0 37 32">
            <path d="M36.027 5.237c-1.272 0.564-2.639 0.945-4.076 1.117 1.483-0.887 2.592-2.283 3.121-3.928-1.393 0.827-2.918 1.41-4.507 1.722-1.069-1.142-2.485-1.898-4.029-2.152s-3.127 0.008-4.506 0.746c-1.379 0.738-2.475 1.911-3.119 3.336s-0.799 3.023-0.442 4.546c-2.823-0.142-5.584-0.875-8.104-2.153s-4.745-3.072-6.527-5.265c-0.61 1.051-0.96 2.27-0.96 3.569-0.001 1.169 0.287 2.32 0.838 3.35s1.347 1.91 2.319 2.559c-1.127-0.036-2.23-0.34-3.215-0.888v0.091c-0 1.639 0.567 3.228 1.605 4.497s2.483 2.139 4.090 2.464c-1.046 0.283-2.142 0.325-3.206 0.122 0.453 1.41 1.336 2.644 2.526 3.528s2.625 1.373 4.106 1.4c-2.515 1.974-5.62 3.045-8.817 3.040-0.566 0-1.132-0.033-1.694-0.099 3.245 2.086 7.022 3.194 10.88 3.189 13.059 0 20.198-10.816 20.198-20.196 0-0.305-0.008-0.613-0.021-0.917 1.389-1.004 2.587-2.248 3.54-3.672l0.003-0.005z"></path>
        </symbol>
        <symbol id="icon-addTo" viewBox="0 0 27 32">
            <path fill="#fff" style="fill: var(--color1, #fff)" opacity="0.3" d="M25.714 9.429c0 2.046-0.813 4.008-2.259 5.455s-3.409 2.259-5.455 2.259-4.008-0.813-5.455-2.259c-1.447-1.447-2.259-3.409-2.259-5.455s0.813-4.008 2.259-5.455c1.447-1.447 3.409-2.259 5.455-2.259s4.008 0.813 5.455 2.259c1.447 1.447 2.259 3.409 2.259 5.455zM18.857 6c0-0.227-0.090-0.445-0.251-0.606s-0.379-0.251-0.606-0.251c-0.227 0-0.445 0.090-0.606 0.251s-0.251 0.379-0.251 0.606v2.571h-2.571c-0.227 0-0.445 0.090-0.606 0.251s-0.251 0.379-0.251 0.606c0 0.227 0.090 0.445 0.251 0.606s0.379 0.251 0.606 0.251h2.571v2.571c0 0.227 0.090 0.445 0.251 0.606s0.379 0.251 0.606 0.251c0.227 0 0.445-0.090 0.606-0.251s0.251-0.379 0.251-0.606v-2.571h2.571c0.227 0 0.445-0.090 0.606-0.251s0.251-0.379 0.251-0.606c0-0.227-0.090-0.445-0.251-0.606s-0.379-0.251-0.606-0.251h-2.571v-2.571zM18 18.857c0.891 0 1.754-0.123 2.571-0.355v11.498c-0 0.158-0.044 0.313-0.127 0.448s-0.201 0.244-0.342 0.316-0.299 0.103-0.456 0.090c-0.158-0.012-0.309-0.068-0.436-0.161l-8.925-6.49-8.925 6.49c-0.128 0.093-0.279 0.149-0.436 0.161s-0.315-0.019-0.456-0.090-0.259-0.181-0.342-0.316c-0.083-0.135-0.127-0.29-0.127-0.448v-22.286c0-1.137 0.452-2.227 1.255-3.030s1.894-1.255 3.030-1.255h6.441c-1.138 1.379-1.86 3.054-2.082 4.828s0.065 3.575 0.827 5.193c0.762 1.617 1.969 2.985 3.479 3.942s3.261 1.466 5.050 1.466z"></path>
        </symbol>
    </defs>
</svg>